<svg width="40" height="37" viewBox="0 0 40 37" fill="none" xmlns="http://www.w3.org/2000/svg">
<rect width="40" height="37" fill="white"/>
<path d="M21.5777 8.47269L23.0568 9.11364L22.4159 7.63453C21.9722 6.64846 21.9722 5.51448 22.4159 4.47911L23.0568 3L21.5777 3.64095C20.5917 4.08468 19.4577 4.08468 18.4223 3.64095L16.9432 3L17.5841 4.47911C18.0279 5.46518 18.0279 6.59916 17.5841 7.63453L16.9432 9.11364L18.4223 8.47269C19.4577 8.07826 20.5917 8.07826 21.5777 8.47269Z" fill="#07AE3A"/>
<path d="M10.3063 29.7744L17.5766 11.1514H22.4234L29.8235 29.9469C30.2563 31.1108 30.7323 32.361 31.2083 33.5249H26.1018C25.7123 32.4472 25.3661 31.3695 24.9767 30.2486L24.4141 28.6105H15.5426L14.9368 30.4211L13.8982 33.568H8.79167C9.31098 32.3179 9.78701 31.0246 10.3063 29.7744ZM22.986 24.5151L19.9567 15.8934L16.9707 24.5151H22.986Z" fill="#07AE3A"/>
</svg>
